<svg id="Layer_1" data-name="Layer 1" xmlns="http://www.w3.org/2000/svg" viewBox="0 0 100 100"><defs><style>.cls-1{fill:#976a99;}.cls-2{fill:#efcbc6;}</style></defs><path class="cls-1" d="M59.75,49.92c0-1.35,5.55-3,12.75-3,3,0,7.65,0,7.65.6s-3.6,1-3.6,1.5,3,.46,3,1-3,.6-3,1,3.6.9,3.6,1.5-4.65.61-7.65.61C65.3,53.23,59.75,51.27,59.75,49.92ZM56.3,40c0-3.75,6.6-17.69,8.55-17.69,0,0,.15,0,.15.29,0,.9-1,3.46-.6,3.46s1.65-2,2.25-2c.15,0,.15.15.15.3,0,.75-.9,2.7-.45,2.7s2.1-2.24,2.7-2.24c.15,0,.3.14.3.45,0,1.65-8.7,15.9-12.3,15.9C56.6,41.23,56.3,40.77,56.3,40Zm0,21c0-.75.3-1.2.75-1.2,3.6,0,12.3,14.25,12.3,15.9,0,.3-.15.45-.3.45-.6,0-2.25-2.25-2.7-2.25s.45,2,.45,2.7c0,.15,0,.3-.15.3-.6,0-1.8-2-2.25-2s.6,2.55.6,3.45c0,.3-.15.3-.15.3C62.9,78.72,56.3,64.77,56.3,61ZM31,25.33c0-.31.15-.45.3-.45.6,0,2.25,2.24,2.7,2.24s-.45-1.95-.45-2.7c0-.15,0-.3.15-.3.6,0,1.8,2,2.25,2s-.6-2.56-.6-3.46c0-.29.15-.29.15-.29C37.4,22.33,44,36.27,44,40c0,.75-.3,1.21-.75,1.21C39.65,41.23,31,27,31,25.33Zm0,50.39c0-1.65,8.7-15.9,12.3-15.9.45,0,.75.45.75,1.2,0,3.75-6.6,17.7-8.55,17.7,0,0-.15,0-.15-.3,0-.9,1.05-3.45.6-3.45s-1.65,2-2.25,2c-.15,0-.15-.15-.15-.3,0-.74.9-2.7.45-2.7s-2.1,2.25-2.7,2.25C31.1,76.17,31,76,31,75.72Zm-10.5-23.1c0-.6,3.6-1,3.6-1.5s-3-.45-3-1,3-.59,3-1-3.6-.9-3.6-1.5,4.65-.6,7.65-.6c7.2,0,12.75,1.65,12.75,3S35.3,53.23,28.1,53.23C25.1,53.23,20.45,53.23,20.45,52.62ZM8,50.07c.15,4.66,5.25,8.1,13.35,8.41A93.33,93.33,0,0,0,38.6,56.07c-6.6,7-14.1,16.81-14.1,23.85,0,4,2.25,7.5,6.45,7.5,9,0,16.35-19.5,19.2-30.44C53,67.92,60.35,87.42,69.35,87.42c4.2,0,6.45-3.45,6.45-7.5,0-7-7.35-16.8-14.1-23.69a105.46,105.46,0,0,0,17.1,2.25c8.1-.31,13-3.75,13.2-8.41s-5.1-8.4-13.35-8.4a85.17,85.17,0,0,0-16.8,2.1c6.6-7,13.95-16.65,13.95-23.69,0-4.06-2.25-7.5-6.45-7.5C60.5,12.58,53,32.08,50.15,43,47.3,31.92,40,12.58,31,12.58c-4.2,0-6.45,3.44-6.45,7.5,0,7,7.35,16.8,14.1,23.69a105,105,0,0,0-17.1-2.1C13.25,41.67,7.85,45.42,8,50.07Zm42.15,3.6a3.75,3.75,0,1,1,3.75-3.75A3.71,3.71,0,0,1,50.15,53.67Z"/><path class="cls-2" d="M59.75,49.92c0-1.35,5.55-3,12.75-3,3,0,7.65,0,7.65.6s-3.6,1-3.6,1.5,3,.46,3,1-3,.6-3,1,3.6.9,3.6,1.5-4.65.61-7.65.61C65.3,53.23,59.75,51.27,59.75,49.92ZM56.3,40c0-3.75,6.6-17.69,8.55-17.69,0,0,.15,0,.15.29,0,.9-1,3.46-.6,3.46s1.65-2,2.25-2c.15,0,.15.15.15.3,0,.75-.9,2.7-.45,2.7s2.1-2.24,2.7-2.24c.15,0,.3.14.3.45,0,1.65-8.7,15.9-12.3,15.9C56.6,41.23,56.3,40.77,56.3,40Zm0,21c0-.75.3-1.2.75-1.2,3.6,0,12.3,14.25,12.3,15.9,0,.3-.15.45-.3.45-.6,0-2.25-2.25-2.7-2.25s.45,2,.45,2.7c0,.15,0,.3-.15.3-.6,0-1.8-2-2.25-2s.6,2.55.6,3.45c0,.3-.15.3-.15.3C62.9,78.72,56.3,64.77,56.3,61ZM31,25.33c0-.31.15-.45.3-.45.6,0,2.25,2.24,2.7,2.24s-.45-1.95-.45-2.7c0-.15,0-.3.15-.3.6,0,1.8,2,2.25,2s-.6-2.56-.6-3.46c0-.29.15-.29.15-.29C37.4,22.33,44,36.27,44,40c0,.75-.3,1.21-.75,1.21C39.65,41.23,31,27,31,25.33Zm0,50.39c0-1.65,8.7-15.9,12.3-15.9.45,0,.75.45.75,1.2,0,3.75-6.6,17.7-8.55,17.7,0,0-.15,0-.15-.3,0-.9,1.05-3.45.6-3.45s-1.65,2-2.25,2c-.15,0-.15-.15-.15-.3,0-.74.9-2.7.45-2.7s-2.1,2.25-2.7,2.25C31.1,76.17,31,76,31,75.72Zm-10.5-23.1c0-.6,3.6-1,3.6-1.5s-3-.45-3-1,3-.59,3-1-3.6-.9-3.6-1.5,4.65-.6,7.65-.6c7.2,0,12.75,1.65,12.75,3S35.3,53.23,28.1,53.23C25.1,53.23,20.45,53.23,20.45,52.62Zm29.7,1.05a3.75,3.75,0,1,1,3.75-3.75A3.71,3.71,0,0,1,50.15,53.67Z"/></svg>