<svg id="Layer_1" data-name="Layer 1" xmlns="http://www.w3.org/2000/svg" viewBox="0 0 100 100"><defs><style>.cls-1{fill:#dd4b38;}.cls-2{fill:#efcbc6;}</style></defs><path class="cls-1" d="M30.5,49.85A6.67,6.67,0,0,1,35,43.4a11.58,11.58,0,0,1-.3-2.25,7,7,0,0,1,9.45-6.45,6.87,6.87,0,0,1,6-3.45,7.06,7.06,0,0,1,6,3.3,11.58,11.58,0,0,1,2.25-.3,7,7,0,0,1,7.05,6.9A6,6,0,0,1,65,43.4a6.81,6.81,0,0,1,4.65,6.45A7.15,7.15,0,0,1,65,56.45a6,6,0,0,1,.45,2.25,7,7,0,0,1-7.05,7,6,6,0,0,1-2.25-.45,6.87,6.87,0,0,1-6,3.45,7.2,7.2,0,0,1-6-3.45,7,7,0,0,1-9.45-6.6,11.58,11.58,0,0,1,.3-2.25A7.24,7.24,0,0,1,30.5,49.85Zm-19.65,0A14,14,0,0,0,20,62.9a15.88,15.88,0,0,0-.75,4.65,14,14,0,0,0,14,14,14.61,14.61,0,0,0,5.1-.9,14,14,0,0,0,24,.15,13.94,13.94,0,0,0,18.45-13.2A15.88,15.88,0,0,0,80,62.9a14,14,0,0,0,9.15-13A13.81,13.81,0,0,0,80,36.8,13.81,13.81,0,0,0,66.8,18.5a14.14,14.14,0,0,0-4.5.75,14,14,0,0,0-24,.15,14.61,14.61,0,0,0-5.1-.9A13.81,13.81,0,0,0,20,36.8,13.81,13.81,0,0,0,10.85,49.85Z"/><path class="cls-2" d="M49,50.9V49m-7.2,1,5.55.75L42.8,54.2,48.2,52,46,57.35l3.6-4.65.75,5.7.75-5.7,3.6,4.65L52.4,52l5.25,2.25L53,50.75,58.85,50,53,49.25l4.65-3.45-5.4,2.25,2.1-5.55L50.9,47l-.75-5.55L49.4,47,46,42.5l2.25,5.4-5.4-2.1,4.5,3.45Z"/></svg>