<svg id="Layer_1" data-name="Layer 1" xmlns="http://www.w3.org/2000/svg" viewBox="0 0 100 100"><defs><style>.cls-1{fill:#87a860;}.cls-2{fill:#966a58;}.cls-3{fill:#efcbc6;}</style></defs><path class="cls-1" d="M68,39.05c-.15-2.85.45-5.7,2.25-7.65,1.2-1,3-1.2,4.8.45a3.48,3.48,0,0,1,.3,4.65C73.4,38.3,70.25,38.6,68,39.05ZM56.15,71c4.65-.9,1.8-9,7.8-9,1.5,0,2.85.6,2.85,3.3C66.8,67.4,64.25,71.6,56.15,71Zm-9.6-48.75c0-1.5,1.2-3,3.6-3a3.33,3.33,0,0,1,3.45,3c0,2.7-2,5.1-3.3,7.05C48.2,27.35,46.55,25,46.55,22.25ZM41.9,59c0-2.1,0-5.7,1.5-5.7S46.25,56,47.45,56s1.2-2.25,2.85-2.25S51.8,56,53,56s2.4-2.7,3.9-2.7,1.65,3.6,1.65,5.7c0,5.85-3.45,9.6-7.8,9.6C46.1,68.6,41.9,64.85,41.9,59Zm-7.8,6.3c0-2.7,1.35-3.3,2.85-3.3,6,0,3.15,8.1,7.8,9C36.65,71.6,34.1,67.4,34.1,65.3Zm-3.3-4.5c0-13,6.15-22.5,19.65-22.5,13,0,18.3,9.45,18.3,22.5,0,12.45-10,21-18.3,21C41.3,81.8,30.8,73.25,30.8,60.8ZM24.5,36.5a3.48,3.48,0,0,1,.3-4.65c1.8-1.65,3.6-1.5,4.8-.45,1.8,2,2.4,4.8,2.25,7.65C29.6,38.6,26.45,38.3,24.5,36.5Zm25.8,51C66.65,87.5,86.15,73,86.15,51.8c0-22.5-10.5-39.3-35.85-39.3S13.85,29.3,13.85,51.8C13.85,73,34,87.5,50.3,87.5Z"/><path class="cls-2" d="M68,39.05c-.15-2.85.45-5.7,2.25-7.65,1.2-1,3-1.2,4.8.45a3.48,3.48,0,0,1,.3,4.65C73.4,38.3,70.25,38.6,68,39.05ZM56.15,71c4.65-.9,1.8-9,7.8-9,1.5,0,2.85.6,2.85,3.3C66.8,67.4,64.25,71.6,56.15,71Zm-9.6-48.75c0-1.5,1.2-3,3.6-3a3.33,3.33,0,0,1,3.45,3c0,2.7-2,5.1-3.3,7.05C48.2,27.35,46.55,25,46.55,22.25ZM34.1,65.3c0-2.7,1.35-3.3,2.85-3.3,6,0,3.15,8.1,7.8,9C36.65,71.6,34.1,67.4,34.1,65.3Zm-3.3-4.5c0-13,6.15-22.5,19.65-22.5,13,0,18.3,9.45,18.3,22.5,0,12.45-10,21-18.3,21C41.3,81.8,30.8,73.25,30.8,60.8ZM24.5,36.5a3.48,3.48,0,0,1,.3-4.65c1.8-1.65,3.6-1.5,4.8-.45,1.8,2,2.4,4.8,2.25,7.65C29.6,38.6,26.45,38.3,24.5,36.5ZM41.9,59c0-2.1,0-5.7,1.5-5.7S46.25,56,47.45,56s1.2-2.25,2.85-2.25S51.8,56,53,56s2.4-2.7,3.9-2.7,1.65,3.6,1.65,5.7c0,5.85-3.45,9.6-7.8,9.6C46.1,68.6,41.9,64.85,41.9,59Z"/><path class="cls-3" d="M56.15,71c4.65-.9,1.8-9,7.8-9,1.5,0,2.85.6,2.85,3.3C66.8,67.4,64.25,71.6,56.15,71Zm-22-5.7c0-2.7,1.35-3.3,2.85-3.3,6,0,3.15,8.1,7.8,9C36.65,71.6,34.1,67.4,34.1,65.3ZM41.9,59c0-2.1,0-5.7,1.5-5.7S46.25,56,47.45,56s1.2-2.25,2.85-2.25S51.8,56,53,56s2.4-2.7,3.9-2.7,1.65,3.6,1.65,5.7c0,5.85-3.45,9.6-7.8,9.6C46.1,68.6,41.9,64.85,41.9,59Z"/></svg>