<svg id="Layer_1" data-name="Layer 1" xmlns="http://www.w3.org/2000/svg" viewBox="0 0 100 100"><defs><style>.cls-1{fill:#dd4b38;}.cls-2{fill:#efcbc6;}.cls-3{fill:#966a58;}</style></defs><path class="cls-1" d="M48.81,50.92l.1-2.06m-41.41,1A15.21,15.21,0,0,0,17.43,64a17.22,17.22,0,0,0-.81,5A15.22,15.22,0,0,0,31.76,84.2a15.88,15.88,0,0,0,5.54-1,15.15,15.15,0,0,0,26.05.16,15.12,15.12,0,0,0,20-14.33,17.22,17.22,0,0,0-.81-5A15.21,15.21,0,0,0,92.5,49.84a15,15,0,0,0-9.93-14.17A15,15,0,0,0,68.24,15.8a15.37,15.37,0,0,0-4.89.82,15.15,15.15,0,0,0-26.05.16,15.88,15.88,0,0,0-5.54-1A15,15,0,0,0,17.43,35.67,15,15,0,0,0,7.5,49.84Z"/><path class="cls-2" d="M48.81,50.92l.1-2.06M41,50l6.24.76-5,3.9,5.86-2.49-2.44,5.8,3.8-5,.87,6.29.76-6.24L55,58l-2.44-5.75,5.75,2.38-5-3.8,6.24-.76-6.18-.86,4.93-3.8-5.91,2.44,2.39-6-3.75,5-.81-6.08-.76,6.08-3.8-5,2.49,6-5.91-2.44,4.88,3.69Zm-5,0a5,5,0,0,0,3.31,4.66A3.92,3.92,0,0,0,39,56.24a5,5,0,0,0,5.05,5,4.12,4.12,0,0,0,1.79-.38,5,5,0,0,0,4.29,2.49A5.16,5.16,0,0,0,54.4,61a4.32,4.32,0,0,0,1.57.28,5,5,0,0,0,5-5,4.93,4.93,0,0,0-.27-1.63,5,5,0,0,0,0-9.33A4.33,4.33,0,0,0,61,43.76a5,5,0,0,0-5-5A4.32,4.32,0,0,0,54.4,39a5.16,5.16,0,0,0-4.29-2.39,5.08,5.08,0,0,0-4.29,2.49A4.12,4.12,0,0,0,44,38.76a5,5,0,0,0-5.05,5,3.46,3.46,0,0,0,.33,1.52A5,5,0,0,0,36,50Zm-8.8,0a8.16,8.16,0,0,1,5.38-7.66A6.14,6.14,0,0,1,32,39.8a8.21,8.21,0,0,1,8.2-8.15,7,7,0,0,1,2.93.6,8.28,8.28,0,0,1,7-4,8.16,8.16,0,0,1,7,3.86,7.83,7.83,0,0,1,2.66-.44,8.19,8.19,0,0,1,8.09,8.15,9.12,9.12,0,0,1-.43,2.49A8.22,8.22,0,0,1,72.74,50a8.11,8.11,0,0,1-5.26,7.54,11.29,11.29,0,0,1,.43,2.71,8.19,8.19,0,0,1-8.09,8.15,7.83,7.83,0,0,1-2.66-.44,8.19,8.19,0,0,1-14-.16,7,7,0,0,1-2.93.6A8.21,8.21,0,0,1,32,60.2a7.49,7.49,0,0,1,.55-2.71A8.05,8.05,0,0,1,27.2,50Zm-8.9,0a11.17,11.17,0,0,0,7.44,10.47,11,11,0,0,0-.65,3.8A11.36,11.36,0,0,0,36.43,75.51a12.06,12.06,0,0,0,4.13-.76,11.33,11.33,0,0,0,9.71,5.59A11.52,11.52,0,0,0,60,74.91a11.67,11.67,0,0,0,3.63.6A11.34,11.34,0,0,0,74.86,64.22a14.84,14.84,0,0,0-.54-3.8,11.27,11.27,0,0,0,0-21.11,12.13,12.13,0,0,0,.54-3.48A11.35,11.35,0,0,0,63.62,24.49a10.32,10.32,0,0,0-3.63.65,11.29,11.29,0,0,0-19.43.11,12.06,12.06,0,0,0-4.13-.76A11.37,11.37,0,0,0,25.09,35.83a9.09,9.09,0,0,0,.65,3.48A11.29,11.29,0,0,0,18.3,50Z"/><path class="cls-1" d="M48.81,50.92l.1-2.06M41,50l6.24.76-5,3.9,5.86-2.49-2.44,5.8,3.8-5,.87,6.29.76-6.24L55,58l-2.44-5.75,5.75,2.38-5-3.8,6.24-.76-6.18-.86,4.93-3.8-5.91,2.44,2.39-6-3.75,5-.81-6.08-.76,6.08-3.8-5,2.49,6-5.91-2.44,4.88,3.69ZM27.2,50a8.16,8.16,0,0,1,5.38-7.66A6.14,6.14,0,0,1,32,39.8a8.21,8.21,0,0,1,8.2-8.15,7,7,0,0,1,2.93.6,8.28,8.28,0,0,1,7-4,8.16,8.16,0,0,1,7,3.86,7.83,7.83,0,0,1,2.66-.44,8.19,8.19,0,0,1,8.09,8.15,9.12,9.12,0,0,1-.43,2.49A8.22,8.22,0,0,1,72.74,50a8.11,8.11,0,0,1-5.26,7.54,11.29,11.29,0,0,1,.43,2.71,8.19,8.19,0,0,1-8.09,8.15,7.83,7.83,0,0,1-2.66-.44,8.19,8.19,0,0,1-14-.16,7,7,0,0,1-2.93.6A8.21,8.21,0,0,1,32,60.2a7.49,7.49,0,0,1,.55-2.71A8.05,8.05,0,0,1,27.2,50Z"/><path class="cls-2" d="M48.81,50.92l.1-2.06M36,50a5,5,0,0,0,3.31,4.66A3.92,3.92,0,0,0,39,56.24a5,5,0,0,0,5.05,5,4.12,4.12,0,0,0,1.79-.38,5,5,0,0,0,4.29,2.49A5.16,5.16,0,0,0,54.4,61a4.32,4.32,0,0,0,1.57.28,5,5,0,0,0,5-5,4.93,4.93,0,0,0-.27-1.63,5,5,0,0,0,0-9.33A4.33,4.33,0,0,0,61,43.76a5,5,0,0,0-5-5A4.32,4.32,0,0,0,54.4,39a5.16,5.16,0,0,0-4.29-2.39,5.08,5.08,0,0,0-4.29,2.49A4.12,4.12,0,0,0,44,38.76a5,5,0,0,0-5.05,5,3.46,3.46,0,0,0,.33,1.52A5,5,0,0,0,36,50Z"/><path class="cls-3" d="M48.81,50.92l.1-2.06M41,50l6.24.76-5,3.9,5.86-2.49-2.44,5.8,3.8-5,.87,6.29.76-6.24L55,58l-2.44-5.75,5.75,2.38-5-3.8,6.24-.76-6.18-.86,4.93-3.8-5.91,2.44,2.39-6-3.75,5-.81-6.08-.76,6.08-3.8-5,2.49,6-5.91-2.44,4.88,3.69Z"/></svg>