<svg id="Layer_1" data-name="Layer 1" xmlns="http://www.w3.org/2000/svg" viewBox="0 0 100 100"><defs><style>.cls-1{fill:#87a860;}.cls-2{fill:#966a58;}</style></defs><path class="cls-1" d="M50,69c9.58,0,15.16-6.19,15.16-15.16,0-7.09-3.52-12.43-9.7-14.37a10.16,10.16,0,0,0,6.6-9.7c0-4.61-2.66-8.12-7.33-9.52,1.94-1.09,3-3,3-5.94,0-4.18-2.85-6.85-7.76-6.85s-7.76,2.67-7.76,6.67c0,2.42.79,4.79,3,6.06-4.73,1.4-7.4,5-7.4,9.58a10,10,0,0,0,6.67,9.7c-6.18,1.94-9.64,7.28-9.64,14.37C34.84,62.85,40.42,69,50,69Z"/><path class="cls-2" d="M45.82,90.26c0,1,1.75,2.24,3.39,2.24s3.58-1.27,3.58-2.24a116.83,116.83,0,0,1-1.09-18c0-8.06,6.06-12.43,6.06-15.22,0-.79-.3-1.27-.91-1.27-1.27,0-2.67,5.88-4.3,5.88-1,0-.79-12.49-.79-13.64s-.24-1.82-1.27-1.82c-.67,0-1.1.73-1.1,1.76,0,2.61.37,7.58-1.15,7.58s-3.39-5-5-5c-.48,0-.73.24-.73.91,0,1.69,5.76,6,5.76,11.7C48.3,68.13,46.79,82,45.82,90.26Z"/></svg>