<svg id="Layer_1" data-name="Layer 1" xmlns="http://www.w3.org/2000/svg" viewBox="0 0 100 100"><defs><style>.cls-1{fill:#966a58;}.cls-2{fill:#87a860;}</style></defs><path class="cls-1" d="M18.37,28.56c2.45,0,1.16-5.09,3.19-5.09,2.31.07.89,7,3.33,7S26.05,25,28.63,25C31,25,29.24,33,32.5,33c2,0,2.65-5.23,2.79-11.75,5.3.06,11.62,5.09,13.59,9.44L49,63.15c-3.8-4.89-10.8-7.88-13.65-7.95-.14-6.46-.68-11.69-2.79-11.69-3.26,0-1.42,7.88-3.94,7.88S27.54,46,25,46s-1,7.06-3.33,7c-2.1.06-.74-5-3.19-5-3,0,1.09,6.38-6.46,6.38-2.78,0-3.46.89-3.53,1.91s.75,2,3.53,2c7.55,0,3.47,6.38,6.46,6.31,2.45,0,1.15-5.09,3.19-5.09,2.31.07.89,7,3.33,7S26.12,61,28.7,61c2.38,0,.61,7.95,3.87,7.95,2.11,0,2.65-5.23,2.79-11.75C39,57.3,45.14,61.45,49,66.07V86c-2.85.34-4.28,2.51-4.28,3.53a.5.5,0,0,0,.55.54c.68,0,1.63-1.29,2.24-2,0,1.42.34,4.48,1.09,4.48s1.36-4,1.49-4.82c.34,1.42.95,3.66,1.7,3.66s.48-3.12.34-4C53,88.63,53.7,89,54.18,89s.54-.27.54-.74c0-1.36-.81-2.18-3.67-2.38V66.07c3.06-4.62,10.2-8.9,13.66-9,.14,6.59.61,12,2.79,12,3.26,0,1.42-7.88,3.94-7.88s1.08,5.43,3.67,5.43c2.44,0,1-7.06,3.33-7,2.1-.07.74,5,3.19,5,3,0-1.09-6.38,6.45-6.38,2.79,0,3.47-.89,3.54-1.91s-.75-2-3.54-2c-7.54,0-3.46-6.39-6.45-6.32-2.45,0-1.16,5.09-3.19,5.09-2.31-.06-.89-7-3.33-7S74,51.46,71.37,51.46c-2.38,0-.61-8-3.87-8-2,0-2.65,5.1-2.79,11.55-3.26.07-10.67,4.08-13.66,8.22V30.67c2.59-5,10.13-9.51,13.59-9.72.07,6.66.61,12,2.79,12,3.26,0,1.42-7.88,3.94-7.88s1.09,5.43,3.67,5.43,1-7.06,3.33-7c2.1-.07.74,5,3.19,5,3,0-1.09-6.38,6.46-6.38,2.78,0,3.46-.89,3.53-1.91s-.75-2-3.53-2c-7.55,0-3.47-6.39-6.46-6.32-2.45,0-1.15,5.09-3.19,5.09-2.31-.07-.89-7-3.33-7s-1.16,5.44-3.74,5.44c-2.38,0-.61-7.95-3.87-7.95-2.11,0-2.65,5-2.79,11.41-3.33.14-11.68,4.56-14.74,9.52-2.92-5-10.13-9.11-14.61-9.18C35.15,12.73,34.61,7.5,32.5,7.5c-3.26,0-1.42,7.88-3.94,7.88S27.48,10,24.89,10s-1,7.06-3.33,7c-2.1.07-.74-5-3.19-5-3,0,1.09,6.38-6.45,6.38-2.79,0-3.47.89-3.54,1.91s.75,2,3.54,2C19.46,22.24,15.38,28.63,18.37,28.56Z"/><path class="cls-2" d="M64.71,56.28C64.78,63.22,65.25,69,67.5,69c3.26,0,1.42-7.88,3.94-7.88s1.08,5.43,3.67,5.43c2.44,0,1-7.06,3.33-7,2.1-.07.74,5,3.19,5,3,0-1.09-6.38,6.45-6.38,2.79,0,3.47-.89,3.54-1.91s-.75-2-3.54-2c-7.54,0-3.46-6.39-6.45-6.32-2.45,0-1.16,5.09-3.19,5.09-2.31-.06-.89-7-3.33-7S74,51.46,71.37,51.46c-2.38,0-.61-8-3.87-8C65.32,43.51,64.78,49.29,64.71,56.28Zm-.07-36C64.71,27.2,65.19,33,67.43,33c3.26,0,1.42-7.88,3.94-7.88s1.09,5.43,3.67,5.43,1-7.06,3.33-7c2.1-.07.74,5,3.19,5,3,0-1.09-6.38,6.46-6.38,2.78,0,3.46-.89,3.53-1.91s-.75-2-3.53-2c-7.55,0-3.47-6.39-6.46-6.32-2.45,0-1.15,5.09-3.19,5.09-2.31-.07-.89-7-3.33-7s-1.16,5.44-3.74,5.44c-2.38,0-.61-7.95-3.87-7.95C65.19,7.5,64.71,13.28,64.64,20.27Zm-56.19,36c.07,1.08.75,2,3.53,2,7.55,0,3.47,6.38,6.46,6.31,2.45,0,1.15-5.09,3.19-5.09,2.31.07.89,7,3.33,7S26.12,61,28.7,61c2.38,0,.61,7.95,3.87,7.95,2.24,0,2.72-5.77,2.79-12.77s-.55-12.71-2.79-12.71c-3.26,0-1.42,7.88-3.94,7.88S27.54,46,25,46s-1,7.06-3.33,7c-2.1.06-.74-5-3.19-5-3,0,1.09,6.38-6.46,6.38C9.2,54.31,8.52,55.2,8.45,56.22Zm9.92-27.66c2.45,0,1.16-5.09,3.19-5.09,2.31.07.89,7,3.33,7S26.05,25,28.63,25C31,25,29.24,33,32.5,33c2.18,0,2.72-5.78,2.79-12.77S34.75,7.5,32.5,7.5c-3.26,0-1.42,7.88-3.94,7.88S27.48,10,24.89,10s-1,7.06-3.33,7c-2.1.07-.74-5-3.19-5-3,0,1.09,6.38-6.45,6.38-2.79,0-3.47.89-3.54,1.91s.75,2,3.54,2C19.46,22.24,15.38,28.63,18.37,28.56Z"/></svg>